<?xml version="1.0" encoding="utf-8"?>
<!-- Generator: Adobe Illustrator 16.0.0, SVG Export Plug-In . SVG Version: 6.00 Build 0)  -->
<!DOCTYPE svg PUBLIC "-//W3C//DTD SVG 1.1//EN" "http://www.w3.org/Graphics/SVG/1.1/DTD/svg11.dtd">
<svg version="1.1" id="Layer_1" xmlns="http://www.w3.org/2000/svg" xmlns:xlink="http://www.w3.org/1999/xlink" x="0px" y="0px"
	 width="389.761px" height="390.72px" viewBox="0 0 389.761 390.72" enable-background="new 0 0 389.761 390.72" fill="#bac2cd"
	 xml:space="preserve">
<g>
	<defs>
		<rect id="SVGID_1_" x="0.001" width="389.76" height="390.72"/>
	</defs>
	<clipPath id="SVGID_2_">
		<use xlink:href="#SVGID_1_"  overflow="visible"/>
	</clipPath>
	<path clip-path="url(#SVGID_2_)" d="M317.104,292.959c-4.399-4.718-8.962-9.199-13.442-13.52c-2.238-2.16-4.476-4.398-6.719-6.641
		l-19.52-19.52c-8.319-8.32-18.078-12.719-28.078-12.719c-10.082,0-19.762,4.398-28.082,12.719c-2,2-4.077,4-6.077,6
		c-4.642,4.559-9.442,9.281-14.082,14.242c-8.239-4-16.642-9.522-26.399-17.203c-12.723-10.398-23.601-20.797-33.281-31.84
		c-5.199-6-14.32-6.641-20.32-1.358c-6,5.198-6.641,14.319-1.36,20.319c10.719,12.32,22.801,23.922,36.879,35.359
		c0.082,0,0.082,0.082,0.16,0.082c14.16,11.2,26.082,18.559,38.801,23.758c0.32,0.16,0.641,0.242,0.961,0.32
		c3.039,1.04,12.16,4.082,21.117-4.8l0.563-0.56c5.438-6.16,11.199-11.762,17.281-17.762c2.078-2,4.156-4.078,6.238-6.16
		c1.918-1.918,4.879-4.316,7.762-4.316c2.879,0,5.758,2.316,7.758,4.316l19.52,19.524c2.321,2.319,4.723,4.636,6.961,6.879
		c4.48,4.319,8.641,8.479,12.641,12.718c0.078,0.16,0.238,0.242,0.32,0.321c3.039,3.039,6.32,7.839-0.16,14.718l-24.401,24.403
		c-5.2,5.198-10.957,7.918-18.239,8.558c-12.398,1.039-25.602-1.359-42.8-7.758c-28.642-10.563-55.36-26.641-84.239-50.641
		c-34.883-29.198-62.32-64.241-81.679-104.159c-6.883-14.481-14.961-33.681-16.321-54.083c-0.722-11.36,2.321-19.52,9.68-26.399
		c5.359-4.48,10.078-9.359,14.559-14c2.878-3.039,5.601-5.84,8.48-8.48l0.078-0.078c5.684-5.442,10.402-5.524,15.684-0.243
		l39.437,39.442l0.242,0.238c1.68,1.602,3.68,4.082,3.758,6.801c0,2.879-2.16,5.68-3.918,7.519l-24.48,24.481
		c-5.602,5.601-5.602,14.719,0,20.398c5.597,5.602,14.719,5.602,20.398,0l24.481-24.476c8.242-8.242,12.48-17.922,12.398-28.16
		c-0.078-10-4.398-19.442-12.476-27.203l-39.364-39.36c-16.476-16.48-38.879-16.558-55.918-0.238
		c-3.359,3.121-6.398,6.32-9.441,9.437c-4.238,4.403-8.238,8.563-12.559,12.161c-0.16,0.16-0.32,0.32-0.558,0.48
		c-14,12.723-20.403,29.359-19.203,49.52c1.679,25.281,11.043,47.839,19.043,64.64v0.082c21.199,43.68,51.117,81.918,89.117,113.758
		c31.441,26.082,60.883,43.763,92.64,55.521c11.68,4.319,28.719,9.761,47.602,9.761c2.48,0,5.039-0.082,7.599-0.32h0.081
		c14-1.198,26.16-6.879,36.16-16.879l24.48-24.479l0.239-0.243C332.864,331.44,332.782,308.881,317.104,292.959"/>
	<path clip-path="url(#SVGID_2_)" d="M311.423,195.12c-4.961-29.121-18.719-55.68-39.762-76.801
		c-20.879-20.957-47.438-34.719-76.637-39.68c-7.839-1.359-15.281,3.922-16.641,11.762c-1.36,7.84,3.918,15.277,11.758,16.64
		c23.203,3.918,44.402,14.958,61.203,31.758c16.797,16.801,27.84,38,31.758,61.2c1.199,7.042,7.281,12,14.16,12
		c0.8,0,1.602-0.079,2.398-0.239C307.505,210.401,312.782,202.959,311.423,195.12"/>
	<path clip-path="url(#SVGID_2_)" d="M389.345,191.6c-8.082-47.68-30.641-91.121-65.121-125.601
		c-34.48-34.477-77.922-57.04-125.602-65.118c-7.84-1.359-15.277,3.918-16.641,11.758c-1.359,7.84,3.922,15.281,11.762,16.641
		c41.762,7.121,79.84,26.801,110.078,57.039c30.242,30.242,50,68.32,57.043,110.082c1.199,7.039,7.278,12,14.16,12
		c0.797,0,1.598-0.082,2.398-0.241C385.423,206.881,390.704,199.44,389.345,191.6"/>
</g>
</svg>
